<?xml version="1.0" encoding="UTF-8" standalone="no"?>
<svg
   xmlns:dc="http://purl.org/dc/elements/1.1/"
   xmlns:cc="http://creativecommons.org/ns#"
   xmlns:rdf="http://www.w3.org/1999/02/22-rdf-syntax-ns#"
   xmlns:svg="http://www.w3.org/2000/svg"
   xmlns="http://www.w3.org/2000/svg"
   xmlns:sodipodi="http://sodipodi.sourceforge.net/DTD/sodipodi-0.dtd"
   xmlns:inkscape="http://www.inkscape.org/namespaces/inkscape"
   width="210mm"
   height="297mm"
   viewBox="0 0 210 297"
   version="1.1"
   id="svg8"
   inkscape:version="1.0.2-2 (e86c870879, 2021-01-15)"
   sodipodi:docname="drawing.svg">
  <defs
     id="defs2" />
  <sodipodi:namedview
     id="base"
     pagecolor="#ffffff"
     bordercolor="#666666"
     borderopacity="1.0"
     inkscape:pageopacity="0.0"
     inkscape:pageshadow="2"
     inkscape:zoom="1.8509393"
     inkscape:cx="323.09555"
     inkscape:cy="145.69006"
     inkscape:document-units="mm"
     inkscape:current-layer="layer1"
     inkscape:document-rotation="0"
     showgrid="false"
     inkscape:snap-text-baseline="false"
     inkscape:window-width="1920"
     inkscape:window-height="1017"
     inkscape:window-x="-8"
     inkscape:window-y="-8"
     inkscape:window-maximized="1" />
  <metadata
     id="metadata5">
    <rdf:RDF>
      <cc:Work
         rdf:about="">
        <dc:format>image/svg+xml</dc:format>
        <dc:type
           rdf:resource="http://purl.org/dc/dcmitype/StillImage" />
        <dc:title></dc:title>
      </cc:Work>
    </rdf:RDF>
  </metadata>
  <g
     inkscape:label="Layer 1"
     inkscape:groupmode="layer"
     id="layer1">
    <g
       aria-label="L &amp; Y R"
       id="text839"
       style="font-size:12.7px;line-height:37.465px;font-family:Railway;-inkscape-font-specification:'Railway, Normal';text-align:center;letter-spacing:0px;word-spacing:0px;writing-mode:lr-tb;text-anchor:middle;fill:#ffff00;stroke:#000000;stroke-width:0.264583;stroke-opacity:1" />
    <g
       aria-label="1884"
       id="text847"
       style="font-size:12.7px;line-height:37.465px;font-family:Railway;-inkscape-font-specification:'Railway, Normal';text-align:center;letter-spacing:0px;word-spacing:0px;writing-mode:lr-tb;text-anchor:middle;fill:#ffff00;stroke:#000000;stroke-width:0.264583;stroke-opacity:1" />
    <path
       id="path886"
       style="fill:#ffff00;stroke:#000000;stroke-width:0.264583px;stroke-linecap:butt;stroke-linejoin:miter;stroke-opacity:1"
       d="m 69.260164,44.761149 -24.112494,0.09493 c 0.0074,-4.386581 -3.217247,-7.980165 -7.269067,-8.100734 l 0.01881,-14.222649 c 4.386581,0.0074 7.980165,-3.217248 8.100734,-7.269062 l 44.477491,0.127001 c -0.0073,4.326929 3.168399,7.861979 7.150391,7.980469 l 0.223312,13.980526 c -4.386583,-0.0074 -7.980167,3.217248 -8.100737,7.269062 l -20.48844,0.14046 9.100143,-0.610383 10.893597,-0.05701 c 0.06539,-4.174328 4.509441,-7.409327 8.051161,-7.305018 L 97.105467,23.865234 c -5.303499,-0.563802 -6.959863,-4.723768 -7.127944,-7.993912 l -43.485337,-0.0764 c -0.01209,4.221665 -4.260942,7.321683 -8.099838,7.25599 l 0.01585,13.210807 c 3.785674,0.04466 7.229704,3.721797 7.271317,8.060074 l 32.680792,-0.171027 z m 13.398802,-5.797074 v -1.27 h -2.0701 v -5.5372 l -5.7023,6.8072 h 4.445 v 2.5273 h 1.27 v -2.5273 z m -3.3274,-1.27 h -1.7145 l 1.7145,-2.0574 z m -7.010386,1.2319 c 0,0.2032 -0.0381,0.3937 -0.1143,0.5588 -0.0762,0.1778 -0.1905,0.3175 -0.3175,0.4445 -0.127,0.127 -0.2794,0.2286 -0.4572,0.3048 -0.1778,0.0762 -0.3556,0.1016 -0.5461,0.1016 -0.2032,0 -0.381,-0.0254 -0.5588,-0.1016 -0.1778,-0.0762 -0.3429,-0.1778 -0.4699,-0.3048 -0.127,-0.127 -0.2286,-0.2667 -0.3048,-0.4445 -0.0762,-0.1651 -0.1143,-0.3429 -0.1143,-0.5461 0,-0.2032 0.0381,-0.381 0.1143,-0.5461 0.0762,-0.1524 0.1778,-0.3048 0.3175,-0.4318 0.127,-0.127 0.2794,-0.254 0.4572,-0.3556 0.1778,-0.1016 0.3556,-0.2159 0.5588,-0.3175 0.1778,0.1016 0.3556,0.2159 0.5334,0.3175 0.1778,0.1143 0.3302,0.2286 0.4699,0.3556 0.127,0.127 0.2413,0.2794 0.3175,0.4318 0.0762,0.1524 0.1143,0.3302 0.1143,0.5334 z m 1.27,0.0127 c 0,-0.2794 -0.0508,-0.5461 -0.127,-0.7747 -0.0889,-0.2286 -0.2032,-0.4445 -0.3429,-0.6477 -0.1524,-0.1905 -0.3175,-0.3683 -0.4953,-0.5207 -0.1905,-0.1524 -0.381,-0.3048 -0.5842,-0.4572 0.3048,-0.2286 0.5715,-0.4953 0.7874,-0.8128 0.2159,-0.3048 0.3302,-0.7112 0.3302,-1.1938 0,-0.3048 -0.0635,-0.6096 -0.1778,-0.889 -0.127,-0.2794 -0.2921,-0.5207 -0.4953,-0.7239 -0.2032,-0.2032 -0.4445,-0.3683 -0.7239,-0.4953 -0.2794,-0.127 -0.5715,-0.1905 -0.8763,-0.1905 -0.3175,0 -0.6096,0.0635 -0.889,0.1905 -0.2794,0.127 -0.5207,0.2921 -0.7239,0.4953 -0.2032,0.2032 -0.3683,0.4445 -0.4826,0.7239 -0.127,0.2794 -0.1778,0.5842 -0.1778,0.889 0,0.4826 0.1016,0.889 0.3048,1.1938 0.2032,0.3048 0.4699,0.5715 0.7874,0.8001 -0.2032,0.1524 -0.4064,0.3048 -0.5842,0.4572 -0.1905,0.1651 -0.3556,0.3429 -0.4953,0.5461 -0.1397,0.2032 -0.254,0.4191 -0.3302,0.6477 -0.0762,0.2286 -0.1143,0.4826 -0.1143,0.762 0,0.3683 0.0635,0.7112 0.2159,1.0414 0.1397,0.3302 0.3302,0.6096 0.5842,0.8509 0.2413,0.2413 0.5207,0.4318 0.8509,0.5715 0.3302,0.1397 0.6731,0.2032 1.0541,0.2032 0.3683,0 0.7112,-0.0635 1.0414,-0.2032 0.3302,-0.1397 0.6096,-0.3302 0.8636,-0.5715 0.2413,-0.2413 0.4318,-0.5207 0.5842,-0.8509 0.1397,-0.3302 0.2159,-0.6731 0.2159,-1.0414 z m -1.7018,-4.4069 c 0,0.254 -0.1016,0.4826 -0.2921,0.6731 -0.2032,0.2032 -0.4445,0.3937 -0.7239,0.5715 -0.2921,-0.1905 -0.5334,-0.381 -0.7112,-0.5842 -0.1905,-0.1905 -0.2794,-0.4064 -0.2794,-0.6604 0,-0.2794 0.0889,-0.5207 0.2921,-0.7239 0.1905,-0.2032 0.4318,-0.3048 0.7112,-0.3048 0.2794,0 0.508,0.1016 0.7112,0.3048 0.1905,0.2032 0.2921,0.4445 0.2921,0.7239 z m -7.442186,4.3942 c 0,0.2032 -0.0381,0.3937 -0.1143,0.5588 -0.0762,0.1778 -0.1905,0.3175 -0.3175,0.4445 -0.127,0.127 -0.2794,0.2286 -0.4572,0.3048 -0.1778,0.0762 -0.3556,0.1016 -0.5461,0.1016 -0.2032,0 -0.381,-0.0254 -0.5588,-0.1016 -0.1778,-0.0762 -0.3429,-0.1778 -0.4699,-0.3048 -0.127,-0.127 -0.2286,-0.2667 -0.3048,-0.4445 -0.0762,-0.1651 -0.1143,-0.3429 -0.1143,-0.5461 0,-0.2032 0.0381,-0.381 0.1143,-0.5461 0.0762,-0.1524 0.1778,-0.3048 0.3175,-0.4318 0.127,-0.127 0.2794,-0.254 0.4572,-0.3556 0.1778,-0.1016 0.3556,-0.2159 0.5588,-0.3175 0.1778,0.1016 0.3556,0.2159 0.5334,0.3175 0.1778,0.1143 0.3302,0.2286 0.4699,0.3556 0.127,0.127 0.2413,0.2794 0.3175,0.4318 0.0762,0.1524 0.1143,0.3302 0.1143,0.5334 z m 1.27,0.0127 c 0,-0.2794 -0.0508,-0.5461 -0.127,-0.7747 -0.0889,-0.2286 -0.2032,-0.4445 -0.3429,-0.6477 -0.1524,-0.1905 -0.3175,-0.3683 -0.4953,-0.5207 -0.1905,-0.1524 -0.381,-0.3048 -0.5842,-0.4572 0.3048,-0.2286 0.5715,-0.4953 0.7874,-0.8128 0.2159,-0.3048 0.3302,-0.7112 0.3302,-1.1938 0,-0.3048 -0.0635,-0.6096 -0.1778,-0.889 -0.127,-0.2794 -0.2921,-0.5207 -0.4953,-0.7239 -0.2032,-0.2032 -0.4445,-0.3683 -0.7239,-0.4953 -0.2794,-0.127 -0.5715,-0.1905 -0.8763,-0.1905 -0.3175,0 -0.6096,0.0635 -0.889,0.1905 -0.2794,0.127 -0.5207,0.2921 -0.7239,0.4953 -0.2032,0.2032 -0.3683,0.4445 -0.4826,0.7239 -0.127,0.2794 -0.1778,0.5842 -0.1778,0.889 0,0.4826 0.1016,0.889 0.3048,1.1938 0.2032,0.3048 0.4699,0.5715 0.7874,0.8001 -0.2032,0.1524 -0.4064,0.3048 -0.5842,0.4572 -0.1905,0.1651 -0.3556,0.3429 -0.4953,0.5461 -0.1397,0.2032 -0.254,0.4191 -0.3302,0.6477 -0.0762,0.2286 -0.1143,0.4826 -0.1143,0.762 0,0.3683 0.0635,0.7112 0.2159,1.0414 0.1397,0.3302 0.3302,0.6096 0.5842,0.8509 0.2413,0.2413 0.5207,0.4318 0.8509,0.5715 0.3302,0.1397 0.6731,0.2032 1.0541,0.2032 0.3683,0 0.7112,-0.0635 1.0414,-0.2032 0.3302,-0.1397 0.6096,-0.3302 0.8636,-0.5715 0.2413,-0.2413 0.4318,-0.5207 0.5842,-0.8509 0.1397,-0.3302 0.2159,-0.6731 0.2159,-1.0414 z m -1.7018,-4.4069 c 0,0.254 -0.1016,0.4826 -0.2921,0.6731 -0.2032,0.2032 -0.4445,0.3937 -0.7239,0.5715 -0.2921,-0.1905 -0.5334,-0.381 -0.7112,-0.5842 -0.1905,-0.1905 -0.2794,-0.4064 -0.2794,-0.6604 0,-0.2794 0.0889,-0.5207 0.2921,-0.7239 0.1905,-0.2032 0.4318,-0.3048 0.7112,-0.3048 0.2794,0 0.508,0.1016 0.7112,0.3048 0.1905,0.2032 0.2921,0.4445 0.2921,0.7239 z m -6.286493,6.9596 v -9.1821 l -1.27,1.4859 v 7.6962 z M 85.328905,22.273994 c 0,0.1778 -0.0381,0.3556 -0.0889,0.508 -0.0635,0.1524 -0.1397,0.2921 -0.2413,0.4064 -0.1016,0.127 -0.2286,0.2159 -0.3556,0.2794 -0.127,0.0762 -0.2667,0.1016 -0.4064,0.1016 h -1.3589 v -2.5527 h 0.9652 c 0.1905,0 0.381,0.0381 0.5588,0.1016 0.1778,0.0762 0.3429,0.1651 0.4826,0.2794 0.127,0.1143 0.2413,0.2413 0.3175,0.3937 0.0762,0.1524 0.127,0.3175 0.127,0.4826 z m 2.8448,6.3246 -2.7813,-4.0513 c 0.381,-0.254 0.6858,-0.5715 0.9144,-0.9652 0.2286,-0.381 0.3429,-0.8255 0.3429,-1.3081 0,-0.3302 -0.0762,-0.6604 -0.2159,-0.9652 -0.1524,-0.3048 -0.3429,-0.5842 -0.5842,-0.8128 -0.2413,-0.2286 -0.5207,-0.4064 -0.8382,-0.5461 -0.3302,-0.127 -0.6604,-0.2032 -1.016,-0.2032 h -2.3876 v 8.89 h 1.27 v -3.7465 h 1.1684 l 2.5781,3.7084 z m -10.515576,-8.8519 h -1.4986 l -1.9812,3.0988 -1.9812,-3.0988 h -1.4986 l 2.8448,4.4577 v 4.4323 h 1.27 v -4.4323 z m -14.376366,6.7564 c -0.1778,0.3175 -0.4064,0.5588 -0.6858,0.7366 -0.2921,0.1778 -0.5842,0.2667 -0.889,0.2667 -0.1778,0 -0.3556,-0.0254 -0.5207,-0.1016 -0.1651,-0.0762 -0.3048,-0.1651 -0.4318,-0.2921 -0.127,-0.127 -0.2159,-0.2667 -0.2921,-0.4318 -0.0762,-0.1651 -0.1016,-0.3429 -0.1016,-0.5461 0,-0.2286 0.0381,-0.4191 0.127,-0.5842 0.0889,-0.1524 0.2032,-0.2921 0.3302,-0.4064 0.127,-0.1016 0.254,-0.1905 0.381,-0.2667 0.127,-0.0635 0.2413,-0.1143 0.3429,-0.1397 z m 3.9243,2.1336 -2.1844,-2.2098 1.6256,-2.4892 h -1.524 l -1.016,1.5748 -1.3462,-1.3462 c 0.1778,-0.0762 0.3683,-0.1905 0.5588,-0.3175 0.1905,-0.127 0.3683,-0.2921 0.5207,-0.4826 0.1524,-0.1778 0.2667,-0.3937 0.3683,-0.6477 0.1016,-0.2413 0.1524,-0.5207 0.1524,-0.8382 0,-0.2794 -0.0635,-0.5588 -0.1905,-0.8128 -0.127,-0.254 -0.2921,-0.4826 -0.4953,-0.6858 -0.2159,-0.1905 -0.4572,-0.3429 -0.7366,-0.4572 -0.2794,-0.1143 -0.5842,-0.1778 -0.889,-0.1778 -0.3048,0 -0.5969,0.0635 -0.8636,0.1778 -0.2794,0.127 -0.508,0.2794 -0.7112,0.4699 -0.2032,0.2032 -0.3556,0.4318 -0.4699,0.6985 -0.127,0.2667 -0.1778,0.5461 -0.1778,0.8255 0,0.3683 0.0762,0.7239 0.2413,1.0541 0.1524,0.3429 0.3302,0.6096 0.5334,0.8128 -0.4572,0.2286 -0.8128,0.5334 -1.0922,0.9398 -0.2794,0.4064 -0.4191,0.8763 -0.4191,1.4097 0,0.381 0.0508,0.7239 0.1778,1.0287 0.127,0.3048 0.2921,0.5715 0.5207,0.8001 0.2286,0.2286 0.4953,0.4191 0.8128,0.5588 0.3175,0.1524 0.6731,0.2286 1.0541,0.254 0.4826,0 0.9652,-0.1143 1.4351,-0.3556 0.4572,-0.2286 0.8382,-0.5588 1.1303,-0.9652 l 1.2446,1.1811 z m -4.1148,-6.7818 c 0,0.1905 -0.0381,0.3556 -0.1143,0.4953 -0.0762,0.1524 -0.1778,0.2794 -0.3048,0.381 -0.127,0.1143 -0.2667,0.2032 -0.4191,0.2667 -0.1524,0.0762 -0.3175,0.127 -0.4699,0.1524 -0.1016,-0.0889 -0.1905,-0.1651 -0.2667,-0.2413 -0.0762,-0.0762 -0.1524,-0.1524 -0.2159,-0.2413 -0.0635,-0.0889 -0.1143,-0.1905 -0.1524,-0.3048 -0.0381,-0.1143 -0.0508,-0.2667 -0.0508,-0.4445 0,-0.2286 0.0889,-0.4445 0.2794,-0.6223 0.1778,-0.1778 0.4064,-0.2794 0.6731,-0.2794 0.2794,0 0.5334,0.0889 0.7366,0.254 0.2032,0.1778 0.3048,0.3683 0.3048,0.5842 z m -7.37867,6.7691 v -1.27 h -4.0386 v -7.62 h -1.27 v 8.89 z" />
  </g>
</svg>
