<?xml version="1.0" encoding="UTF-8" standalone="no"?>
<svg
   xmlns:dc="http://purl.org/dc/elements/1.1/"
   xmlns:cc="http://creativecommons.org/ns#"
   xmlns:rdf="http://www.w3.org/1999/02/22-rdf-syntax-ns#"
   xmlns:svg="http://www.w3.org/2000/svg"
   xmlns="http://www.w3.org/2000/svg"
   xmlns:sodipodi="http://sodipodi.sourceforge.net/DTD/sodipodi-0.dtd"
   xmlns:inkscape="http://www.inkscape.org/namespaces/inkscape"
   width="210mm"
   height="297mm"
   viewBox="0 0 210 297"
   version="1.1"
   id="svg8"
   inkscape:version="1.0.2-2 (e86c870879, 2021-01-15)"
   sodipodi:docname="lms_roundel.svg">
  <defs
     id="defs2" />
  <sodipodi:namedview
     id="base"
     pagecolor="#ffffff"
     bordercolor="#666666"
     borderopacity="1.0"
     inkscape:pageopacity="0.0"
     inkscape:pageshadow="2"
     inkscape:zoom="0.59377422"
     inkscape:cx="25.909105"
     inkscape:cy="584.29919"
     inkscape:document-units="mm"
     inkscape:current-layer="layer1"
     inkscape:document-rotation="0"
     showgrid="false"
     inkscape:window-width="1920"
     inkscape:window-height="1017"
     inkscape:window-x="-8"
     inkscape:window-y="-8"
     inkscape:window-maximized="1" />
  <metadata
     id="metadata5">
    <rdf:RDF>
      <cc:Work
         rdf:about="">
        <dc:format>image/svg+xml</dc:format>
        <dc:type
           rdf:resource="http://purl.org/dc/dcmitype/StillImage" />
        <dc:title></dc:title>
      </cc:Work>
    </rdf:RDF>
  </metadata>
  <g
     inkscape:label="Layer 1"
     inkscape:groupmode="layer"
     id="layer1">
    <g
       aria-label="LMS"
       transform="scale(0.56656215,1.7650314)"
       id="text848"
       style="font-style:normal;font-variant:normal;font-weight:normal;font-stretch:normal;font-size:43.533px;line-height:128.422px;font-family:'Javanese Text';-inkscape-font-specification:'Javanese Text, Normal';font-variant-ligatures:normal;font-variant-caps:normal;font-variant-numeric:normal;font-variant-east-asian:normal;text-align:center;letter-spacing:0px;word-spacing:0px;writing-mode:lr-tb;text-anchor:middle;stroke-width:0.906937">
      <path
         d="m 85.434696,81.262813 c 2.86573,1.127203 8.392843,2.12906 10.497969,1.712911 2.651738,-0.513368 2.366537,-0.818099 3.273474,-1.64001 0.906941,-0.850253 0.899841,-0.742237 1.551701,-2.0743 0.65186,-1.332063 0.61466,-2.947543 1.06813,-4.846442 0.48181,-1.92724 0.90694,-4.208752 1.27538,-6.844536 h 2.97588 l -0.93528,21.5114 C 87.696802,86.082203 72.915689,82.432666 62.019366,77.835417 v -3.401012 l 6.556064,2.766976 -0.278066,-41.111996 -8.109284,2.335234 v -3.401012 c 7.566127,-2.70156 15.644433,-5.074309 25.295026,-6.437672 v 3.401012 l -8.895776,2.903264 -0.21349,43.384116 z"
         style="font-style:normal;font-variant:normal;font-weight:normal;font-stretch:normal;font-size:87.0659px;font-family:'Javanese Text';-inkscape-font-specification:'Javanese Text, Normal';font-variant-ligatures:normal;font-variant-caps:normal;font-variant-numeric:normal;font-variant-east-asian:normal;stroke-width:0.906937"
         id="path850"
         sodipodi:nodetypes="cccsccccccccccccccc" />
      <path
         d="m 166.63906,86.757972 -0.55613,-58.32639 h -0.21257 l -21.55044,62.365092 h -3.3585 L 119.65911,28.516608 h -0.21256 l 0.55613,58.241364 7.13366,0.790747 v 3.401012 c -5.99499,-0.183642 -12.16877,-0.769041 -18.42509,-1.539876 v -3.401012 l 7.46529,0.749129 -0.55613,-59.431718 h -8.50253 v -3.401012 l 20.27323,-1.325403 17.69403,54.975401 h 0.17005 l 18.90936,-54.975401 18.71087,1.325403 v 3.401012 h -8.50253 l 0.55613,59.431718 8.63218,-0.749129 v 3.401012 c -7.99995,0.880269 -16.18368,1.288578 -24.44477,1.498258 v -3.401012 z"
         style="font-style:normal;font-variant:normal;font-weight:normal;font-stretch:normal;font-size:87.0659px;font-family:'Javanese Text';-inkscape-font-specification:'Javanese Text, Normal';font-variant-ligatures:normal;font-variant-caps:normal;font-variant-numeric:normal;font-variant-east-asian:normal;stroke-width:0.906937"
         id="path852"
         sodipodi:nodetypes="ccccccccccccccccccccccccccccc" />
      <path
         d="m 182.61464,66.330919 h 2.97588 c 0.31176,3.230962 0.93528,5.923429 1.87056,8.077403 0.93528,2.153974 2.08312,3.868651 3.44352,5.144031 1.38875,1.27538 2.96172,2.182316 4.71891,2.720809 1.78553,0.510152 3.67025,0.765228 5.65418,0.765228 2.38071,0 4.40714,-0.297588 6.07931,-0.892766 1.70051,-0.595176 3.08925,-1.417087 4.16624,-2.465733 1.10533,-1.076987 1.8989,-2.352367 2.38071,-3.826139 0.51015,-1.502113 0.76522,-3.145935 0.76522,-4.931467 0,-2.210657 -0.36844,-4.02453 -1.10533,-5.441619 -0.73688,-1.44543 -1.77135,-2.664126 -3.10342,-3.656088 -1.30372,-1.020303 -2.87669,-1.898898 -4.7189,-2.635784 -1.84222,-0.736886 -3.86866,-1.502113 -6.07931,-2.295683 -2.21066,-0.793569 -4.32212,-1.629651 -6.33439,-2.508246 -1.98392,-0.878594 -3.74111,-1.969752 -5.27156,-3.273474 -1.53046,-1.303721 -2.74916,-2.89086 -3.65609,-4.761416 -0.87859,-1.898898 -1.13477,-2.252783 -1.13477,-5.058618 0,-2.635784 0.14705,-3.973746 0.9973,-6.156062 0.85025,-2.182316 0.83473,-2.035317 2.5069,-3.565772 1.18555,-0.95631 2.48982,-1.268262 4.95555,-2.118515 2.49407,-0.850253 8.29106,-0.818229 11.57871,-0.818229 1.30372,0 3.83173,-0.0184 5.22048,0.123305 1.38875,0.113367 2.27671,0.40916 3.63711,0.664236 1.38875,0.255076 2.88819,0.58915 4.22025,0.957593 1.33206,0.340101 2.52375,0.745029 3.71411,1.170156 l 0.92725,15.27589 h -2.97589 c -0.25507,-3.06091 -0.82191,-5.554986 -1.7005,-7.482226 -0.8786,-1.92724 -1.95559,-3.429353 -3.23097,-4.50634 -1.24703,-1.105329 -2.09382,-1.945643 -3.65262,-2.342428 -1.04384,-0.49207 -3.451,-1.128605 -5.06648,-1.128605 -4.90925,-0.432447 -9.05234,-0.257199 -11.22018,0.930187 -1.04864,0.96362 -1.74726,0.730761 -2.28576,2.14785 -0.51015,1.388746 -0.6957,2.158398 -0.6957,3.915587 0,2.097291 0.18532,1.841828 0.92221,3.230574 0.73688,1.388747 1.77135,2.593272 3.10342,3.613575 1.36041,0.991962 2.97589,1.884728 4.84644,2.678297 1.8989,0.765228 3.98202,1.572969 6.24936,2.423221 2.06895,0.79357 4.09538,1.643823 6.07931,2.550759 2.01227,0.878595 3.7978,1.998095 5.35659,3.358499 1.58714,1.332063 2.86252,2.990056 3.82614,4.97398 0.96362,1.955582 1.44543,4.392973 1.44543,7.312175 0,2.834177 -0.49598,5.356594 -1.48794,7.567252 -0.96362,2.210658 -2.36654,4.067043 -4.20875,5.569156 -1.81387,1.502114 -4.0387,2.649956 -6.67449,3.443525 -2.63579,0.79357 -5.61167,1.190354 -8.92766,1.190354 -1.44543,0 -2.94754,-0.07085 -4.50634,-0.212563 -1.53045,-0.141708 -3.06091,-0.354272 -4.59136,-0.63769 -1.50211,-0.283417 -2.97589,-0.609347 -4.42132,-0.977791 -1.44543,-0.368442 -2.79166,-0.793569 -4.0387,-1.275379 z"
         style="font-style:normal;font-variant:normal;font-weight:normal;font-stretch:normal;font-size:87.0659px;font-family:'Javanese Text';-inkscape-font-specification:'Javanese Text, Normal';font-variant-ligatures:normal;font-variant-caps:normal;font-variant-numeric:normal;font-variant-east-asian:normal;stroke-width:0.906937"
         id="path854"
         sodipodi:nodetypes="ccsccscccsccsscscssccsccccccscccccssccccccsccssccscc" />
    </g>
  </g>
</svg>
